<svg xmlns="http://www.w3.org/2000/svg" width="215" height="65" viewBox="0 0 215 65">
    <g fill="none" fill-rule="evenodd">
        <g fill="#FFF" fill-rule="nonzero">
            <path d="M194.167 16.48l-1.52-6.708-1.513 6.708-7.037 1.444 7.037 1.437 1.513 6.704 1.52-6.704 7.04-1.437v-.003zM45.84 16.72c.894-1.489 1.755-2.797 2.562-3.884.76-1.03 1.443-1.716 2.032-2.033l.06-.04c.362-.291.42-.75.145-1.141-.188-.265-.485-.467-.957-.638-.334-.102-.7-.17-1.086-.204a3.404 3.404 0 0 0-1.331.159c-.708.218-1.449.834-2.269 1.886-.763.982-1.55 2.181-2.339 3.57-.939 1.59-1.732 3.073-2.638 4.817a469.641 469.641 0 0 1-2.44 4.646c-1.867 3.247-3.448 5.825-4.694 7.659-1.348 1.983-1.9 2.264-2.01 2.298-.227-.105-.409-.359-.542-.757-.182-.543-.297-1.225-.346-2.021-.05-.826-.043-1.76.024-2.778a46.86 46.86 0 0 1 .31-3.194c.136-1.064.289-2.18.45-3.32a85.09 85.09 0 0 1 .501-3.055c.18-.966.32-1.779.434-2.485.116-.747.177-1.284.186-1.64.009-.482-.18-.914-.565-1.287a3.826 3.826 0 0 0-1.063-.718 3.488 3.488 0 0 0-1.478-.353h-.108c-.399.017-.688.128-.88.331-.127.13-.27.362-.235.772.055.298.05.894-.293 2.044-.295.967-.74 2.115-1.321 3.4a46.946 46.946 0 0 1-2.173 4.18 53.915 53.915 0 0 1-2.898 4.493 105.432 105.432 0 0 1-2.567 3.515c-.827 1.082-1.569 1.974-2.211 2.662-.665.724-1.235 1.283-1.694 1.662-.392.323-.569.384-.581.403-.034-.026-.196-.216-.26-.965-.07-.831-.054-1.91.043-3.223a78.65 78.65 0 0 1 .484-4.523c.246-1.849.955-5.742 1.095-6.505.276-1.496.512-2.884.703-4.129.19-1.22.333-2.248.43-3.064.142-1.168.088-1.522 0-1.745a2.587 2.587 0 0 0-.692-.928 3.808 3.808 0 0 0-.893-.585c-.562-.266-1.088-.353-1.56-.249-.42.092-.596.32-.677.507-.107.264-.055.558.151.87.01.084.029.359-.056 1.108-.096.818-.233 1.86-.414 3.103a126.095 126.095 0 0 1-.698 4.235 358.387 358.387 0 0 0-.971 5.547c-.21 1.306-.39 2.535-.53 3.643a68.041 68.041 0 0 0-.325 2.93c-.078.857-.076 1.523 0 1.925.044.668.29 1.365.73 2.088a6.49 6.49 0 0 0 1.64 1.804c.5.378 1.074.667 1.697.847.345.11.706.16 1.074.16.337 0 .68-.048 1.03-.13.516-.148 1.074-.5 1.71-1.063A19.84 19.84 0 0 0 19.38 35.4a41.69 41.69 0 0 0 1.925-2.454 92.76 92.76 0 0 1 1.882-2.51c.52-.71 1.01-1.426 1.456-2.14.46-.725.872-1.381 1.235-1.965l.113-.184a28.552 28.552 0 0 0-.004 1.888c.028 1.018.12 2.04.268 3.045.162 1.07.48 1.931.934 2.561a6.62 6.62 0 0 0 2.449 2.253c.599.34 1.214.557 1.825.663.18.023.358.04.53.04a2.61 2.61 0 0 0 1.292-.32c.513-.243 1.077-.726 1.68-1.423a36.596 36.596 0 0 0 1.845-2.368 48.171 48.171 0 0 0 1.996-3.067 73.73 73.73 0 0 0 1.932-3.43 369.804 369.804 0 0 0 2.517-4.655c.996-1.89 1.745-3.225 2.585-4.613zM126.07 20.666a2.243 2.243 0 0 0-.772-.45 4.943 4.943 0 0 0-.969-.264c-.243-.047-.479-.083-.692-.118l-.252-.045c-.28-.048-.528-.09-.735-.133-.13-.027-.228-.09-.242-.115 0 0 0-.034.052-.105.145-.25.264-.442.4-.85.16-.393.084-.795-.207-1.149a5.202 5.202 0 0 0-1.114-.98c-.442-.292-.793-.45-1.063-.471l-.093-.003c-.502 0-.762.313-.841.617-.05.219-.195.68-.598 1.623-.325.77-.754 1.66-1.261 2.638l-2.151 4.087c-.189.296-.378.605-.594.94a34.115 34.115 0 0 1-2.508 3.3 19.694 19.694 0 0 1-1.783 1.866 23.417 23.417 0 0 1-1.91 1.56 8.492 8.492 0 0 1-1.828 1.021c-.58.231-1.082.34-1.587.305-.443-.015-.79-.206-1.086-.601-.264-.34-.456-.784-.571-1.3 4.023-1.166 8.28-4.703 8.472-9.176.051-1.186-.413-2.271-1.24-2.903a4.162 4.162 0 0 0-1.788-.77c-.659-.118-1.385-.094-2.164.077-1.262.298-2.478 1-3.618 2.095-1.14 1.089-2.094 2.75-2.835 4.947-.09.256-.159.503-.225.755l-.215.325a38.627 38.627 0 0 1-1.115 1.59 80.9 80.9 0 0 1-1.324 1.667 15.79 15.79 0 0 1-1.215 1.346 6.076 6.076 0 0 1-1 .809c-.18.107-.314.144-.388.144-.12-.03-.433-.129-.519-1-.082-.773-.05-1.686.097-2.723.139-1.036.343-2.133.603-3.256.257-1.08.49-2.009.682-2.705.263-.595.531-1.275.794-2.01l.307-.833c.14-.378.288-.768.442-1.174l.599-1.577c.47-1.227.92-2.412 1.198-3.182.428-1.208.652-1.877.756-2.243.124-.499.1-.991-.077-1.456a3.924 3.924 0 0 0-.644-1.138c-.43-.49-.905-.781-1.41-.864a1.42 1.42 0 0 0-.209-.017c-.263 0-.897.097-1.134.996l-.69 2.469c-.536 1.84-1.585 4.71-2.123 6.115a78.848 78.848 0 0 1-1.046 2.642 5.25 5.25 0 0 0-.3-.256 8.55 8.55 0 0 0-1.27-.837 5.753 5.753 0 0 0-1.42-.555 4.264 4.264 0 0 0-1.032-.144c-.094 0-.186.006-.3.017-.658.106-1.3.38-1.897.81-.565.403-1.12.92-1.655 1.539-.456.536-.9 1.148-1.326 1.828a.899.899 0 0 0-.18.267c-.014.029-.026.062-.04.084-.233.393-.459.798-.667 1.184-.18.287-.39.606-.63.963a44.663 44.663 0 0 1-2.378 3.168 20.212 20.212 0 0 1-1.318 1.55 15.67 15.67 0 0 1-1.285 1.226c-.376.324-.728.571-1.043.72a.91.91 0 0 1-.382.105c-.055 0-.075-.006-.07-.008-.344-.154-.408-.69-.4-1.13.016-.831.148-1.76.397-2.754.23-.966.507-1.893.819-2.762.31-.855.56-1.493.729-1.853.261-.561.25-1.187-.022-1.844a5.04 5.04 0 0 0-1.084-1.604 3.957 3.957 0 0 0-1.252-.854c-.48-.198-.872-.263-1.395-.167-.752.177-1.589.657-2.494 1.438-.854.733-1.717 1.6-2.556 2.566a30.66 30.66 0 0 0-1.689 2.066c-.556.744-1.038 1.395-1.469 1.994-.038.054-.077.113-.118.165.165-.533.348-1.066.548-1.592.274-.814.539-1.544.788-2.17a31.5 31.5 0 0 0 .573-1.546c.078-.261.092-.67-.264-1.161a2.512 2.512 0 0 0-.796-.738 1.723 1.723 0 0 0-.909-.365l-.089-.004c-.387 0-.698.185-.841.482-.093.135-.173.29-.234.465l-.064.136c-1.258 2.927-3.602 4.606-6.433 4.606h-.057a10.989 10.989 0 0 0 .534-2.285c.077-.677.03-1.468-.122-2.054-.305-1.387-1.277-2.536-2.466-2.907-.81-.285-1.844-.286-2.604 0-.757.281-1.335.663-1.783 1.173a2.412 2.412 0 0 0-.76-.395c-.422-.13-.868-.098-1.382.128-.497.257-1.044.81-1.72 1.73-.634.86-1.236 1.898-1.786 3.076a19.933 19.933 0 0 0-1.434 3.84c-.365 1.392-.46 2.678-.282 3.828.1.54.35 1.082.743 1.605.39.517.894.96 1.496 1.291.477.275.985.467 1.51.577.518.1 1.135.082 1.738-.052.724-.18 1.61-.727 2.72-1.71.328-.306.67-.65 1.011-1.003a30.287 30.287 0 0 0 2.738-3.369c.132-.193.26-.392.387-.593 2.044.227 3.943-.02 5.587-.724a128.77 128.77 0 0 0-.683 2.318c-.327 1.136-.527 1.942-.615 2.468-.079.58.088 1.12.497 1.61.346.41.743.75 1.178 1.025 1.067.685 1.699.631 1.994-.063.02-.078.123-.33.602-1.068.37-.578.837-1.258 1.386-2.04.532-.76 1.149-1.61 1.816-2.525a62.057 62.057 0 0 1 2.054-2.643 52.322 52.322 0 0 1 1.717-2.033 32.44 32.44 0 0 1 1.527-1.615c.435-.424.815-.731 1.134-.91.05-.027.095-.046.13-.063-.023.103-.07.27-.189.521-.286.615-.641 1.416-1.063 2.38-.273.68-.525 1.409-.749 2.178a9.679 9.679 0 0 0-.365 2.618c-.024.72.14 1.465.49 2.209.341.719.796 1.334 1.35 1.848a4.575 4.575 0 0 0 2.063 1.094c.842.192 1.618.073 2.444-.376.675-.387 1.375-.924 2.093-1.632.097.69.365 1.309.798 1.84.42.522.933.981 1.533 1.348.612.373 1.257.614 1.917.692.73.11 1.368-.056 1.872-.446a11.45 11.45 0 0 0 1.796-1.69c.52-.61 1.036-1.235 1.539-1.887a27.694 27.694 0 0 0 1.625-2.574c.013.09.021.194.038.289.068.463.202.92.392 1.352a5.65 5.65 0 0 0 .904 1.466c.4.496.914.884 1.5 1.153 1.038.531 2.365.502 3.607-.095.722-.36 1.464-.95 2.196-1.748.227-.244.458-.507.691-.786.397 1.01.97 1.864 1.71 2.545 1.264 1.172 2.753 1.767 4.423 1.767.128 0 .261-.004.407-.01 1.459-.094 2.902-.634 4.276-1.591a18.51 18.51 0 0 0 3.573-3.3c1.043-1.223 4.662-6.89 5.383-8.225l.882-1.534c.295.014.67.07.942.117l.13.018c.288.057.533.123.792.173-.005.308-.264.91-.495 1.404-.369.817-.891 2.002-1.217 2.82-.85 2.138-2.73 8.67-.331 10.578.551.433 1.108.668 1.558.668.39 0 .617-.164.742-.31.133-.158.272-.433.197-.904-.579-3.27.389-6.427 1.397-9.088.157-.408.33-.809.496-1.19.169-.405.341-.792.477-1.154.081-.232.21-.55.338-.886.323-.835.535-1.402.599-1.639.129-.488.053-.972-.233-1.447a2.974 2.974 0 0 0-.452-.54zm-22.255 7.886a8.08 8.08 0 0 1 .248-.754 10.93 10.93 0 0 1 1.067-2.157c.457-.715.944-1.382 1.426-1.964.725-.814 1.32-1.34 1.85-1.658.282-.166.449-.19.521-.19.21 0 .268.422.27.671.091 2.135-2.592 5.404-5.382 6.052zm-14.387-1.351a38.19 38.19 0 0 1-1.154 1.904 28.55 28.55 0 0 1-1.384 1.947c-.885 1.161-1.687 2.07-2.38 2.71-.617.574-.958.712-1.111.748a1.53 1.53 0 0 1-.049-.34c-.016-.457.042-1.069.169-1.753.137-.74.35-1.572.64-2.457a26.1 26.1 0 0 1 1.06-2.722c.357-.803.753-1.58 1.182-2.302.414-.698.857-1.316 1.308-1.841.432-.487.867-.84 1.293-1.053.208-.1.41-.157.605-.157.139 0 .287.027.424.083.224.09.35.228.409.436.086.3.092.64.03 1.01-.062.4-.171.806-.328 1.213-.157.411-.3.765-.406 1.017-.363.736-.459 1.2-.308 1.557zM54.33 23.359c-.128.491-.343 1.049-.669 1.732-1.084-.691-1.517-1.666-1.222-2.773.154-.575.622-1.196 1.286-1.196a.68.68 0 0 1 .186.03c.156.042.313.243.44.558.16.416.15.973-.02 1.65zm-2.25 4.411c-.637.923-1.356 1.861-1.89 2.458-.337.376-.86.94-1.267 1.334-.55.544-1.063.962-1.527 1.233-.35.205-.538.229-.619.229l-.078-.015c-.071-.028-.26-.099-.239-.67.019-.58.15-1.31.393-2.167.181-.66.42-1.347.71-2.047.228-.544.467-1.08.723-1.605.436-.993.9-1.703 1.332-2.275.255 1.379 1.137 2.653 2.462 3.525zM139.447 19.848c-.792-.53-1.654-.8-2.555-.8-.27 0-.546.027-.873.082a8.59 8.59 0 0 0-1.56.564l1.081-2.564c.476-1.156.905-2.26 1.261-3.282.364-1.008.59-1.75.697-2.21a2.565 2.565 0 0 0-.12-1.534c-.196-.459-.453-.825-.754-1.092-.327-.289-.695-.41-1.114-.36-.437.053-.806.347-1.115.903-.109.22-.25.559-.447 1.034a40.78 40.78 0 0 0-.65 1.658c-.233.649-.478 1.35-.738 2.092-.262.754-.526 1.514-.798 2.287l-1.842 5.43a45.636 45.636 0 0 0-1.116 3.715 82.864 82.864 0 0 0-.693 3.053c-.443 2.325-.52 3.919-.234 4.857.116.385.294.775.537 1.144.252.356.532.684.852.952.692.598 1.432.908 2.193.908.159 0 .315-.014.47-.042.476-.075 1.027-.295 1.63-.673a10.929 10.929 0 0 0 1.776-1.407 25.949 25.949 0 0 0 3.468-4.15c.917-1.342 1.656-2.717 2.192-4.075.552-1.415.727-2.637.498-3.642-.293-1.17-.983-2.128-2.046-2.848zm-1.056 2.657a8.074 8.074 0 0 1-.522 1.956c-.291.743-.649 1.5-1.061 2.25a19.516 19.516 0 0 1-1.24 2.017c-.476.717-.99 1.431-1.536 2.112a24.319 24.319 0 0 1-1.55 1.78c-.491.498-.933.862-1.325 1.103-.204.12-.323.152-.392.167-.03-.138-.053-.486.078-1.306.16-1.052.407-2.29.731-3.678.194-.781.394-1.537.597-2.244.157-.543.317-1.069.464-1.577.144.048.291.069.439.069.052 0 .103-.002.25-.029.318-.098.6-.33.847-.717.163-.295.405-.597.73-.91.36-.34.74-.657 1.139-.94.582-.407 1.135-.705 1.629-.881.257-.096.419-.115.505-.115.062 0 .085.011.079.004.142.153.189.488.138.94zM186.322 25.01a.963.963 0 0 0-.534-.164c-.376.019-.653.307-.948.65-3.635 4.26-10.27 7.351-15.77 7.351-2.905 0-5.123-.89-6.285-2.514l.26-.328c1.445-1.804 2.487-3.045 3.385-4.031 2.167-2.446 4.33-4.34 5.064-4.77.615-.375.598-.883.555-1.08-.077-.457-.479-.891-1.131-1.219-.82-.425-1.77-.482-2.21-.216-1.075.52-3.71 3.416-4.954 4.878l-2.49 2.92c-.168-.892-.306-1.947-.312-2.708a20.56 20.56 0 0 1 .353-3.64c.06-.4-.042-.798-.314-1.162a2.063 2.063 0 0 0-.334-.34 3.709 3.709 0 0 0-.557-.416c-.46-.29-.992-.411-1.35-.479-1.797-.326-3.414-.266-5.224.186-1.022.26-1.967.6-2.766.908h-.01c-1.048 0-1.882.145-2.476.43-.704.357-1.239.92-1.513 1.56-.142.227-.26.46-.332.707-.077.047-.179.107-.295.183l-.065.06c-.15.156-.365.393-.638.701-.298.334-.596.722-.902 1.156a15.195 15.195 0 0 0-1.76 3.349 26.236 26.236 0 0 0-.76 2.264 12.674 12.674 0 0 0-.336 1.725c-.053.51-.07.95-.06 1.315.018.368.036.708.058.986.004.507.196 1.038.562 1.579.359.525.841.965 1.438 1.305.45.275.95.466 1.471.537.512.07 1.071.021 1.695-.178.565-.229 1.16-.612 1.772-1.122a16.482 16.482 0 0 0 1.782-1.736 29.17 29.17 0 0 0 1.469-1.818c.493-.644.926-1.33 1.296-2.014.759-1.34 1.262-2.612 1.502-3.78.234-1.177.29-2.23.158-3.131a4.957 4.957 0 0 0-.868-2.02c.01-.005.022-.006.036-.01.938-.338 2.311-.523 3.6-.48-.136 1.258-.1 2.783.104 4.342.177 1.399.371 2.638 1.057 4.694a66.946 66.946 0 0 0-4.425 6.463l-.134.222c-.61.868-.295 2.012.345 2.696.367.371.82.585 1.243.585.451 0 .824-.24 1.028-.673.183-.419.625-1.066 1.384-2.177l.576-.846a54.006 54.006 0 0 1 2.057-2.858c1.856 1.934 4.567 2.964 7.878 2.964h.001c6.088 0 13.714-3.552 17.368-8.086.53-.658.794-1.445.676-1.991-.075-.336-.21-.574-.42-.728zm-34.907-.766c-.16.758-.5 1.75-1.021 2.94a17.648 17.648 0 0 1-1.59 2.806 19.529 19.529 0 0 1-1.923 2.427c-.582.645-1.109 1.132-1.57 1.463-.242.182-.388.245-.454.257-.028-.054-.083-.206-.078-.518.008-.478.085-1.065.222-1.707.14-.545.317-1.14.54-1.787a23.64 23.64 0 0 1 .77-1.929c.164-.376.381-.827.658-1.336.288-.517.574-1.035.859-1.539a50.6 50.6 0 0 1 .771-1.306c.252-.404.336-.493.367-.514.182-.152.299-.345.35-.571l1.825-.787c.313.749.41 1.451.274 2.101zM80.138 32.519v.115"/>
        </g>
        <path fill="#C2C2C2" d="M41.332 56v-7h3.12c.88 0 1.57.26 2.02.7.37.38.58.9.58 1.51v.02c0 1.15-.69 1.84-1.67 2.12l1.89 2.65h-1.45l-1.72-2.44h-1.54V56h-1.23zm1.23-3.53h1.8c.88 0 1.44-.46 1.44-1.17v-.02c0-.75-.54-1.16-1.45-1.16h-1.79v2.35zm10.203-4.05h.94l1.28-.97-1.1-.48-1.12 1.45zM50.645 56h5.24v-1.1h-4.01v-1.88h3.51v-1.1h-3.51V50.1h3.96V49h-5.19v7zm8.183 0l3.08-7.05h1.14l3.08 7.05h-1.3l-.71-1.69h-3.31l-.72 1.69h-1.26zm2.43-2.78h2.41l-1.21-2.8-1.2 2.8zM69.412 56h4.91v-1.12h-3.68V49h-1.23v7zm8.343 0h1.23v-7h-1.23v7zm7.633.1c1.47 0 2.5-.78 2.5-2.09v-.02c0-1.16-.77-1.69-2.25-2.05-1.34-.32-1.66-.56-1.66-1.1v-.02c0-.46.42-.83 1.14-.83.64 0 1.27.25 1.9.72l.66-.93c-.71-.57-1.52-.88-2.54-.88-1.39 0-2.39.83-2.39 2.03v.02c0 1.29.84 1.73 2.33 2.09 1.3.3 1.58.57 1.58 1.07v.02c0 .53-.48.88-1.24.88-.87 0-1.54-.33-2.21-.91l-.74.88c.84.75 1.85 1.12 2.92 1.12zm5.284-.1l3.08-7.05h1.14l3.08 7.05h-1.3l-.71-1.69h-3.31l-.72 1.69h-1.26zm2.43-2.78h2.41l-1.21-2.8-1.2 2.8zm8.973 2.78h1.24v-5.86h2.22V49h-5.68v1.14h2.22V56zm6.843 0h5.24v-1.1h-4.01v-1.88h3.51v-1.1h-3.51V50.1h3.96V49h-5.19v7zm11.654.11c1.83 0 3.01-1.05 3.01-3.14V49h-1.23v4.03c0 1.29-.67 1.95-1.76 1.95-1.1 0-1.77-.7-1.77-2V49h-1.23v4.03c0 2.03 1.16 3.08 2.98 3.08zm6.783-.11v-7h3.12c.88 0 1.57.26 2.02.7.37.38.58.9.58 1.51v.02c0 1.15-.69 1.84-1.67 2.12l1.89 2.65h-1.45l-1.72-2.44h-1.54V56h-1.23zm1.23-3.53h1.8c.88 0 1.44-.46 1.44-1.17v-.02c0-.75-.54-1.16-1.45-1.16h-1.79v2.35zM141.752 56v-7h2.61c2.2 0 3.72 1.51 3.72 3.48v.02c0 1.97-1.52 3.5-3.72 3.5h-2.61zm1.23-1.12h1.38c1.47 0 2.43-.99 2.43-2.36v-.02c0-1.37-.96-2.38-2.43-2.38h-1.38v4.76zm8.673 1.12h5.24v-1.1h-4.01v-1.88h3.51v-1.1h-3.51V50.1h3.96V49h-5.19v7zm13.867 0v-7h3.12c.88 0 1.57.26 2.02.7.37.38.58.9.58 1.51v.02c0 1.15-.69 1.84-1.67 2.12l1.89 2.65h-1.45l-1.72-2.44h-1.54V56h-1.23zm1.23-3.53h1.8c.88 0 1.44-.46 1.44-1.17v-.02c0-.75-.54-1.16-1.45-1.16h-1.79v2.35zm8.083 3.53h5.24v-1.1h-4.01v-1.88h3.51v-1.1h-3.51V50.1h3.96V49h-5.19v7zm.83-7.58h1l.77-.58.77.58h1.02l-1.21-1.35h-1.14l-1.21 1.35zm10.263 7.63h1.08l2.91-7.05h-1.33l-2.1 5.38-2.11-5.38h-1.36l2.91 7.05zm7.274-.05h5.24v-1.1h-4.01v-1.88h3.51v-1.1h-3.51V50.1h3.96V49h-5.19v7zm11.233.1c1.47 0 2.5-.78 2.5-2.09v-.02c0-1.16-.77-1.69-2.25-2.05-1.34-.32-1.66-.56-1.66-1.1v-.02c0-.46.42-.83 1.14-.83.64 0 1.27.25 1.9.72l.66-.93c-.71-.57-1.52-.88-2.54-.88-1.39 0-2.39.83-2.39 2.03v.02c0 1.29.84 1.73 2.33 2.09 1.3.3 1.58.57 1.58 1.07v.02c0 .53-.48.88-1.24.88-.87 0-1.54-.33-2.21-.91l-.74.88c.84.75 1.85 1.12 2.92 1.12z"/>
    </g>
</svg>
